A young poet wishing to take his own life soon finds events have overtaken him in this experimental 1960s drama from director Don Levy. Disillusioned poet Max (Michael Gothard) decides to commit suicide, but rather than making it a quiet affair, Max contacts the local media so that, he hopes, his name will live on. 

_______________________________________

Rip Specs

Source: Blu-Ray

General
Complete name                    : C:\Users\antonio\Documents\Filmes\Herostratus (Don Levy, 1967)\Herostratus.1967.BluRay.MKO.mkv
Format                           : Matroska
File size                        : 1.75 GiB
Duration                         : 2h 23mn
Overall bit rate                 : 1 753 Kbps
Movie name                       : Herostratus 1967 720p BluRay 

Video
ID                               : 1
Format                           : AVC
Format/Info                      : Advanced Video Codec
Format profile                   : High@L4.0
Format settings, CABAC           : Yes
Format settings, ReFrames        : 3 frames
Codec ID                         : V_MPEG4/ISO/AVC
Duration                         : 2h 23mn
Bit rate mode                    : Variable
Bit rate                         : 1 496 Kbps
Maximum bit rate                 : 25.0 Mbps
Width                            : 960 pixels
Height                           : 720 pixels
Display aspect ratio             : 4:3
Frame rate                       : 23.976 fps
Color space                      : YUV
Chroma subsampling               : 4:2:0
Bit depth                        : 8 bits
Scan type                        : Progressive
Bits/(Pixel*Frame)               : 0.090
Stream size                      : 1.46 GiB (83%)


Audio
ID                               : 2
Format                           : AC-3
Format/Info                      : Audio Coding 3
Mode extension                   : CM (complete main)
Codec ID                         : A_AC3
Duration                         : 2h 23mn
Bit rate mode                    : Constant
Bit rate                         : 256 Kbps
Channel(s)                       : 2 channels
Channel positions                : Front: L R
Sampling rate                    : 48.0 KHz
Bit depth                        : 16 bits
Compression mode                 : Lossy
Stream size                      : 262 MiB (15%)
Language                         : English
